<svg width="208" height="205" viewBox="0 0 208 205" fill="none" xmlns="http://www.w3.org/2000/svg">
<rect width="208" height="205" fill="white"/>
<rect x="19" y="34" width="20" height="20" rx="2" fill="#D9D9D9"/>
<rect x="44" y="34" width="20" height="20" rx="2" fill="#D9D9D9"/>
<rect x="69" y="34" width="20" height="20" rx="2" fill="#D9D9D9"/>
<rect x="94" y="34" width="20" height="20" rx="2" fill="#D9D9D9"/>
<rect x="119" y="34" width="20" height="20" rx="2" fill="#D9D9D9"/>
<rect x="144" y="34" width="20" height="20" rx="2" fill="#D9D9D9"/>
<rect x="169" y="34" width="20" height="20" rx="2" fill="#D9D9D9"/>
<rect x="19" y="34" width="20" height="20" rx="2" fill="#D8E0FA"/>
<rect x="44" y="34" width="20" height="20" rx="2" fill="#002B99"/>
<rect x="69" y="34" width="20" height="20" rx="2" fill="#F6F6A4"/>
<rect x="94" y="34" width="20" height="20" rx="2" fill="#D9D9D9"/>
<rect x="119" y="34" width="20" height="20" rx="2" fill="#D9D9D9"/>
<rect x="144" y="34" width="20" height="20" rx="2" fill="#002B99"/>
<rect x="169" y="34" width="20" height="20" rx="2" fill="#F6F6A4"/>
<rect x="19.5" y="10.5" width="19" height="19" rx="1.5" stroke="#7E91F4"/>
<rect x="44.5" y="10.5" width="19" height="19" rx="1.5" stroke="#7E91F4"/>
<rect x="69.5" y="10.5" width="19" height="19" rx="1.5" stroke="#7E91F4"/>
<rect x="94.5" y="10.5" width="19" height="19" rx="1.5" stroke="#7E91F4"/>
<rect x="119.5" y="10.5" width="19" height="19" rx="1.5" stroke="#7E91F4"/>
<rect x="144.5" y="10.5" width="19" height="19" rx="1.5" stroke="#7E91F4"/>
<rect x="169.5" y="10.5" width="19" height="19" rx="1.5" stroke="#7E91F4"/>
<rect x="19.5" y="10.5" width="19" height="19" rx="1.5" stroke="#002B99"/>
<rect x="44.5" y="10.5" width="19" height="19" rx="1.5" stroke="#002B99"/>
<rect x="69.5" y="10.5" width="19" height="19" rx="1.5" stroke="#002B99"/>
<rect x="94.5" y="10.5" width="19" height="19" rx="1.5" stroke="#002B99"/>
<rect x="119.5" y="10.5" width="19" height="19" rx="1.5" stroke="#002B99"/>
<rect x="144.5" y="10.5" width="19" height="19" rx="1.5" stroke="#002B99"/>
<rect x="169.5" y="10.5" width="19" height="19" rx="1.5" stroke="#002B99"/>
<rect x="19" y="58" width="20" height="20" rx="2" fill="#D9D9D9"/>
<rect x="44" y="58" width="20" height="20" rx="2" fill="#D9D9D9"/>
<rect x="69" y="58" width="20" height="20" rx="2" fill="#D9D9D9"/>
<rect x="94" y="58" width="20" height="20" rx="2" fill="#D9D9D9"/>
<rect x="119" y="58" width="20" height="20" rx="2" fill="#D9D9D9"/>
<rect x="144" y="58" width="20" height="20" rx="2" fill="#D9D9D9"/>
<rect x="169" y="58" width="20" height="20" rx="2" fill="#D9D9D9"/>
<rect x="19" y="58" width="20" height="20" rx="2" fill="#F6F6A4"/>
<rect x="44" y="58" width="20" height="20" rx="2" fill="#002B99"/>
<rect x="69" y="58" width="20" height="20" rx="2" fill="#D8E0FA"/>
<rect x="94" y="58" width="20" height="20" rx="2" fill="#D9D9D9"/>
<rect x="119" y="58" width="20" height="20" rx="2" fill="#F6F6A4"/>
<rect x="144" y="58" width="20" height="20" rx="2" fill="#002B99"/>
<rect x="169" y="58" width="20" height="20" rx="2" fill="#D9D9D9"/>
<rect x="19" y="82" width="20" height="20" rx="2" fill="#D0D7F3"/>
<rect x="44" y="82" width="20" height="20" rx="2" fill="#002B99"/>
<rect x="69" y="82" width="20" height="20" rx="2" fill="#D0D7F3"/>
<rect x="94" y="82" width="20" height="20" rx="2" fill="#D9D9D9"/>
<rect x="119" y="82" width="20" height="20" rx="2" fill="#D9D9D9"/>
<rect x="144" y="82" width="20" height="20" rx="2" fill="#002B99"/>
<rect x="169" y="82" width="20" height="20" rx="2" fill="#D8E0FA"/>
<rect x="19" y="130" width="20" height="20" rx="2" fill="#D8E0FA"/>
<rect x="44" y="130" width="20" height="20" rx="2" fill="#002B99"/>
<rect x="69" y="130" width="20" height="20" rx="2" fill="#F6F6A4"/>
<rect x="94" y="130" width="20" height="20" rx="2" fill="#D9D9D9"/>
<rect x="119" y="130" width="20" height="20" rx="2" fill="#D8E0FA"/>
<rect x="144" y="130" width="20" height="20" rx="2" fill="#002B99"/>
<rect x="169" y="130" width="20" height="20" rx="2" fill="#D9D9D9"/>
<rect x="19" y="154" width="20" height="20" rx="2" fill="#D9D9D9"/>
<rect x="44" y="154" width="20" height="20" rx="2" fill="#002B99"/>
<rect x="69" y="154" width="20" height="20" rx="2" fill="#D9D9D9"/>
<rect x="94" y="154" width="20" height="20" rx="2" fill="#D8E0FA"/>
<rect x="119" y="154" width="20" height="20" rx="2" fill="#D9D9D9"/>
<rect x="144" y="154" width="20" height="20" rx="2" fill="#002B99"/>
<rect x="169" y="154" width="20" height="20" rx="2" fill="#D0D7F3"/>
<rect x="19" y="178" width="20" height="20" rx="2" fill="#D8E0FA"/>
<rect x="44" y="178" width="20" height="20" rx="2" fill="#002B99"/>
<rect x="69" y="178" width="20" height="20" rx="2" fill="#D9D9D9"/>
<rect x="94" y="178" width="20" height="20" rx="2" fill="#F6F6A4"/>
<rect x="119" y="178" width="20" height="20" rx="2" fill="#D9D9D9"/>
<rect x="144" y="178" width="20" height="20" rx="2" fill="#002B99"/>
<rect x="169" y="178" width="20" height="20" rx="2" fill="#D9D9D9"/>
<rect x="19" y="106" width="20" height="20" rx="2" fill="#D0D7F3"/>
<rect x="44" y="106" width="20" height="20" rx="2" fill="#002B99"/>
<rect x="69" y="106" width="20" height="20" rx="2" fill="#002B99"/>
<rect x="94" y="106" width="20" height="20" rx="2" fill="#002B99"/>
<rect x="119" y="106" width="20" height="20" rx="2" fill="#002B99"/>
<rect x="144" y="106" width="20" height="20" rx="2" fill="#002B99"/>
<rect x="169" y="106" width="20" height="20" rx="2" fill="#F6F6A4"/>
<path d="M25.0568 25V16.2727H26.1136V20.1591H30.767V16.2727H31.8239V25H30.767V21.0966H26.1136V25H25.0568Z" fill="#002B99"/>
<path d="M51.4148 25H50.3068L53.5114 16.2727H54.6023L57.8068 25H56.6989L54.0909 17.6534H54.0227L51.4148 25ZM51.8239 21.5909H56.2898V22.5284H51.8239V21.5909Z" fill="#002B99"/>
<path d="M76.0568 25V16.2727H79.108C79.7159 16.2727 80.2173 16.3778 80.6122 16.5881C81.0071 16.7955 81.3011 17.0753 81.4943 17.4276C81.6875 17.777 81.7841 18.1648 81.7841 18.5909C81.7841 18.9659 81.7173 19.2756 81.5838 19.5199C81.4531 19.7642 81.2798 19.9574 81.0639 20.0994C80.8509 20.2415 80.6193 20.3466 80.3693 20.4148V20.5C80.6364 20.517 80.9048 20.6108 81.1747 20.7812C81.4446 20.9517 81.6705 21.196 81.8523 21.5142C82.0341 21.8324 82.125 22.2216 82.125 22.6818C82.125 23.1193 82.0256 23.5128 81.8267 23.8622C81.6278 24.2116 81.3139 24.4886 80.8849 24.6932C80.456 24.8977 79.8977 25 79.2102 25H76.0568ZM77.1136 24.0625H79.2102C79.9006 24.0625 80.3906 23.929 80.6804 23.6619C80.973 23.392 81.1193 23.0653 81.1193 22.6818C81.1193 22.3864 81.044 22.1136 80.8935 21.8636C80.7429 21.6108 80.5284 21.4091 80.25 21.2585C79.9716 21.1051 79.642 21.0284 79.2614 21.0284H77.1136V24.0625ZM77.1136 20.108H79.0739C79.392 20.108 79.679 20.0455 79.9347 19.9205C80.1932 19.7955 80.3977 19.6193 80.5483 19.392C80.7017 19.1648 80.7784 18.8977 80.7784 18.5909C80.7784 18.2074 80.6449 17.8821 80.3778 17.6151C80.1108 17.3452 79.6875 17.2102 79.108 17.2102H77.1136V20.108Z" fill="#002B99"/>
<path d="M104.114 16.2727V25H103.057V16.2727H104.114Z" fill="#002B99"/>
<path d="M155.784 16.2727H156.841V22.0511C156.841 22.6477 156.7 23.1804 156.419 23.6491C156.141 24.1151 155.747 24.483 155.239 24.7528C154.73 25.0199 154.134 25.1534 153.449 25.1534C152.764 25.1534 152.168 25.0199 151.659 24.7528C151.151 24.483 150.756 24.1151 150.474 23.6491C150.196 23.1804 150.057 22.6477 150.057 22.0511V16.2727H151.114V21.9659C151.114 22.392 151.207 22.7713 151.395 23.1037C151.582 23.4332 151.849 23.6932 152.196 23.8835C152.545 24.071 152.963 24.1648 153.449 24.1648C153.935 24.1648 154.352 24.071 154.702 23.8835C155.051 23.6932 155.318 23.4332 155.503 23.1037C155.69 22.7713 155.784 22.392 155.784 21.9659V16.2727Z" fill="#002B99"/>
<path d="M180.83 18.4545C180.778 18.0227 180.571 17.6875 180.207 17.4489C179.844 17.2102 179.398 17.0909 178.869 17.0909C178.483 17.0909 178.145 17.1534 177.855 17.2784C177.568 17.4034 177.344 17.5753 177.182 17.794C177.023 18.0128 176.943 18.2614 176.943 18.5398C176.943 18.7727 176.999 18.973 177.109 19.1406C177.223 19.3054 177.368 19.4432 177.544 19.554C177.72 19.6619 177.905 19.7514 178.098 19.8224C178.291 19.8906 178.469 19.946 178.631 19.9886L179.517 20.2273C179.744 20.2869 179.997 20.3693 180.276 20.4744C180.557 20.5795 180.825 20.723 181.081 20.9048C181.339 21.0838 181.553 21.3139 181.72 21.5952C181.888 21.8764 181.972 22.2216 181.972 22.6307C181.972 23.1023 181.848 23.5284 181.601 23.9091C181.357 24.2898 180.999 24.5923 180.527 24.8168C180.058 25.0412 179.489 25.1534 178.818 25.1534C178.193 25.1534 177.652 25.0526 177.195 24.8509C176.74 24.6491 176.382 24.3679 176.121 24.0071C175.862 23.6463 175.716 23.2273 175.682 22.75H176.773C176.801 23.0795 176.912 23.3523 177.105 23.5682C177.301 23.7812 177.548 23.9403 177.847 24.0455C178.148 24.1477 178.472 24.1989 178.818 24.1989C179.222 24.1989 179.584 24.1335 179.905 24.0028C180.226 23.8693 180.48 23.6847 180.668 23.4489C180.855 23.2102 180.949 22.9318 180.949 22.6136C180.949 22.3239 180.868 22.0881 180.706 21.9062C180.544 21.7244 180.331 21.5767 180.067 21.4631C179.803 21.3494 179.517 21.25 179.21 21.1648L178.136 20.858C177.455 20.6619 176.915 20.3821 176.517 20.0185C176.119 19.6548 175.92 19.179 175.92 18.5909C175.92 18.1023 176.053 17.6761 176.317 17.3125C176.584 16.946 176.942 16.6619 177.391 16.4602C177.842 16.2557 178.347 16.1534 178.903 16.1534C179.466 16.1534 179.966 16.2543 180.403 16.456C180.841 16.6548 181.188 16.9276 181.443 17.2741C181.702 17.6207 181.838 18.0142 181.852 18.4545H180.83Z" fill="#002B99"/>
<path d="M125.58 17.2102V16.2727H132.125V17.2102H129.381V25H128.324V17.2102H125.58Z" fill="#002B99"/>
<rect x="46" y="36" width="3" height="3" fill="white"/>
<rect x="71" y="36" width="3" height="3" fill="white"/>
<rect x="121" y="36" width="3" height="3" fill="white"/>
<rect x="146" y="36" width="3" height="3" fill="white"/>
<rect x="170" y="36" width="3" height="3" fill="white"/>
<rect x="96" y="36" width="3" height="3" fill="white"/>
<rect x="21" y="36" width="3" height="3" fill="white"/>
<rect x="46" y="36" width="3" height="3" fill="white"/>
<rect x="170" y="36" width="3" height="3" fill="white"/>
<rect x="21" y="60" width="3" height="3" fill="white"/>
<rect x="46" y="60" width="3" height="3" fill="white"/>
<rect x="71" y="60" width="3" height="3" fill="white"/>
<rect x="121" y="60" width="3" height="3" fill="white"/>
<rect x="146" y="60" width="3" height="3" fill="white"/>
<rect x="170" y="60" width="3" height="3" fill="white"/>
<rect x="96" y="60" width="3" height="3" fill="white"/>
<rect x="21" y="84" width="3" height="3" fill="white"/>
<rect x="46" y="84" width="3" height="3" fill="white"/>
<rect x="71" y="84" width="3" height="3" fill="white"/>
<rect x="121" y="84" width="3" height="3" fill="white"/>
<rect x="146" y="84" width="3" height="3" fill="white"/>
<rect x="170" y="84" width="3" height="3" fill="white"/>
<rect x="96" y="84" width="3" height="3" fill="white"/>
<rect x="21" y="108" width="3" height="3" fill="white"/>
<rect x="46" y="108" width="3" height="3" fill="white"/>
<rect x="71" y="108" width="3" height="3" fill="white"/>
<rect x="121" y="108" width="3" height="3" fill="white"/>
<rect x="146" y="108" width="3" height="3" fill="white"/>
<rect x="170" y="108" width="3" height="3" fill="white"/>
<rect x="96" y="108" width="3" height="3" fill="white"/>
<rect x="21" y="132" width="3" height="3" fill="white"/>
<rect x="46" y="132" width="3" height="3" fill="white"/>
<rect x="71" y="132" width="3" height="3" fill="white"/>
<rect x="121" y="132" width="3" height="3" fill="white"/>
<rect x="146" y="132" width="3" height="3" fill="white"/>
<rect x="170" y="132" width="3" height="3" fill="white"/>
<rect x="96" y="132" width="3" height="3" fill="white"/>
<rect x="21" y="156" width="3" height="3" fill="white"/>
<rect x="46" y="156" width="3" height="3" fill="white"/>
<rect x="71" y="156" width="3" height="3" fill="white"/>
<rect x="121" y="156" width="3" height="3" fill="white"/>
<rect x="146" y="156" width="3" height="3" fill="white"/>
<rect x="170" y="156" width="3" height="3" fill="white"/>
<rect x="96" y="156" width="3" height="3" fill="white"/>
<rect x="21" y="180" width="3" height="3" fill="white"/>
<rect x="46" y="180" width="3" height="3" fill="white"/>
<rect x="71" y="180" width="3" height="3" fill="white"/>
<rect x="121" y="180" width="3" height="3" fill="white"/>
<rect x="146" y="180" width="3" height="3" fill="white"/>
<rect x="170" y="180" width="3" height="3" fill="white"/>
<rect x="96" y="180" width="3" height="3" fill="white"/>
</svg>
